<svg width="44" height="86" viewBox="0 0 44 86" fill="none" xmlns="http://www.w3.org/2000/svg">
<g clip-path="url(#clip0_5_9861)">
<path d="M21.9998 0L26.7998 2L30.5998 4L32.6998 6V8L30.5998 10L26.7998 12L21.9998 14L17.1998 16L13.3998 18L11.2998 20V22L13.3998 24L17.1998 26L21.9998 28L26.7998 30L30.5998 32L32.6998 34V36L30.5998 38L26.7998 40L21.9998 42L17.1998 44L13.3998 46L11.2998 48V50L13.3998 52L17.1998 54L21.9998 56L26.7998 58L30.5998 60L32.6998 62V64L30.5998 66L26.7998 68L21.9998 70L17.1998 72L13.3998 74L11.2998 76V78L13.3998 80L17.1998 82L21.9998 84L26.7998 86" stroke="#321B5D" stroke-width="2" stroke-linecap="round" stroke-linejoin="round"/>
</g>
<defs>
<clipPath id="clip0_5_9861">
<rect width="44" height="86" fill="white"/>
</clipPath>
</defs>
</svg>
